<svg width="34" height="34" viewBox="0 0 34 34" fill="none" xmlns="http://www.w3.org/2000/svg">
<path d="M9.11703 4.82106C10.4338 2.34236 10.5214 1.67747 9.9819 1.2655C6.07879 2.66547 1.33325 9.31704 1.33325 13.7099C1.33325 16.8951 16.5405 10.8951 14.8828 20.2285C14.1621 25.8581 6.23415 31.1914 5.9819 28.3025C6.37829 23.9322 11.7713 21.7438 19.9999 17.5618C20.5765 17.5618 20.3301 18.967 19.9999 19.784M15.5675 12.6729C10.8828 11.4137 23.5314 -2.7345 24.2161 8.52476C24.4225 11.9189 24.3242 17.9322 23.5314 24.9692M22.3783 33.2655L23.5314 24.9692M23.5314 24.9692L15.8918 26.747M23.5314 24.9692L33.3333 22.3025" stroke="#D53B6E" stroke-width="2"/>
</svg>
