<svg width="63" height="32" viewBox="0 0 63 32" fill="none" xmlns="http://www.w3.org/2000/svg">
<path d="M16.0518 4.59884C18.5893 2.27507 18.7581 1.65173 17.7184 1.26551C10.1968 2.57798 1.05175 8.81382 1.05176 12.9322C1.05176 15.9183 30.3573 10.2933 27.1629 19.0433C25.774 24.3211 10.4962 29.3211 10.0101 26.6127C10.774 22.5155 21.1668 20.4639 37.024 16.5433C38.1351 16.5433 37.6603 17.8607 37.024 18.6266M28.4823 11.96C19.4545 10.7794 43.8295 -2.48449 45.149 8.07107C45.5467 11.253 45.3573 16.8905 43.8295 23.4877M41.6073 31.2655L43.8295 23.4877M43.8295 23.4877L29.1073 25.1544M43.8295 23.4877L62.7184 20.9877" stroke="#D53B6E" stroke-width="2"/>
</svg>
